<?xml version="1.0" standalone="no"?>
<!DOCTYPE svg PUBLIC "-//W3C//DTD SVG 20010904//EN"
 "http://www.w3.org/TR/2001/REC-SVG-20010904/DTD/svg10.dtd">
<svg version="1.0" xmlns="http://www.w3.org/2000/svg"
 width="980.000000pt" height="980.000000pt" viewBox="0 0 980.000000 980.000000"
 preserveAspectRatio="xMidYMid meet">

<g transform="translate(0.000000,980.000000) scale(0.100000,-0.100000)"
fill="#000000" stroke="none">
<path d="M4029 9790 c-241 -12 -232 8 -374 -840 -42 -250 -80 -458 -83 -461
-4 -3 -50 -21 -102 -39 -154 -54 -338 -129 -453 -187 -61 -30 -113 -50 -120
-46 -7 4 -160 113 -342 243 -333 238 -573 403 -632 433 -18 10 -55 17 -87 17
-54 0 -57 -1 -148 -77 -145 -121 -742 -721 -764 -768 -12 -26 -18 -63 -19
-105 0 -61 3 -71 47 -141 26 -41 138 -206 249 -365 334 -478 373 -539 366
-573 -4 -16 -36 -96 -73 -178 -37 -81 -93 -217 -125 -302 -32 -85 -63 -159
-68 -164 -12 -12 -202 -50 -591 -117 -422 -73 -587 -107 -623 -127 -75 -43
-86 -132 -86 -678 -1 -578 13 -687 91 -719 40 -17 288 -67 698 -140 437 -79
489 -90 505 -112 16 -21 38 -72 121 -284 31 -80 78 -188 104 -240 26 -52 51
-105 54 -118 6 -19 -30 -75 -216 -335 -122 -172 -277 -393 -344 -493 -172
-256 -172 -265 -14 -444 147 -166 691 -704 731 -723 20 -9 60 -19 91 -23 82
-10 58 -24 673 404 209 146 387 267 395 269 15 3 63 -16 285 -112 61 -27 175
-71 255 -99 l145 -51 12 -70 c6 -39 37 -224 68 -412 71 -436 119 -676 148
-733 31 -63 69 -79 214 -90 65 -5 333 -6 596 -3 l477 6 0 -219 c1 -283 12
-413 42 -473 43 -84 41 -84 350 -94 150 -5 1157 -7 2237 -4 l1964 5 54 54 55
55 1 1709 c2 1785 1 1819 -40 1954 -14 44 -33 71 -98 139 -131 137 -185 164
-360 181 -55 5 -459 10 -897 10 l-797 0 40 117 c21 64 42 120 46 124 8 7 91
23 735 139 469 84 522 102 565 185 30 57 42 569 24 1011 -9 220 -15 244 -73
287 -62 46 -122 60 -661 153 -425 73 -568 101 -580 113 -5 5 -31 68 -58 141
-27 73 -86 216 -130 318 -82 185 -82 185 -65 216 9 17 114 171 232 341 313
449 432 630 443 673 13 47 3 86 -37 144 -79 114 -690 728 -804 808 -39 27 -59
35 -92 34 -79 -2 -145 -42 -681 -424 -403 -287 -382 -273 -415 -267 -15 3 -97
37 -181 75 -85 39 -211 91 -280 117 -145 54 -186 76 -199 107 -5 13 -39 196
-75 408 -82 478 -129 708 -157 767 -29 62 -74 81 -221 93 -123 11 -749 11
-948 0z m808 -386 c18 -3 34 -12 37 -22 3 -9 39 -206 81 -437 91 -502 130
-690 155 -730 26 -42 53 -56 240 -120 205 -70 285 -103 508 -209 201 -96 246
-111 295 -102 37 7 176 99 537 356 129 92 286 202 348 244 l113 77 57 -50 c31
-27 151 -144 265 -258 l208 -209 -137 -195 c-256 -364 -445 -640 -495 -722
-72 -117 -70 -136 48 -382 105 -219 137 -295 204 -493 26 -79 60 -164 74 -188
32 -54 86 -86 190 -113 68 -17 526 -95 923 -157 61 -10 118 -21 125 -26 9 -5
13 -86 15 -330 4 -341 0 -403 -24 -412 -8 -3 -166 -33 -352 -66 -364 -66 -716
-134 -772 -150 -75 -21 -123 -97 -189 -301 -23 -69 -57 -164 -75 -210 l-34
-84 -766 -3 c-421 -1 -766 1 -766 4 0 3 30 38 66 77 184 201 347 530 395 797
21 114 18 510 -4 621 -68 338 -263 676 -521 902 -226 197 -532 342 -808 383
-156 23 -503 15 -628 -14 -484 -114 -898 -444 -1110 -886 -57 -120 -103 -251
-125 -361 -38 -186 -38 -506 0 -689 76 -367 305 -724 614 -957 194 -146 501
-278 715 -308 98 -14 440 -14 526 -1 36 6 121 26 190 45 164 44 166 45 162 20
-10 -80 -23 -482 -32 -995 l-11 -605 -54 -260 c-65 -313 -86 -411 -126 -577
-26 -108 -33 -127 -52 -132 -12 -3 -178 -6 -369 -6 l-348 0 -5 23 c-3 12 -39
227 -80 477 -42 250 -87 504 -102 564 -23 99 -29 113 -67 150 -44 45 -59 52
-181 85 -110 31 -319 114 -510 203 -187 88 -265 118 -304 118 -56 0 -145 -57
-684 -432 -180 -125 -332 -229 -336 -231 -22 -6 -444 417 -497 498 -9 14 -13
33 -9 44 3 12 72 114 152 228 529 753 514 727 488 827 -8 31 -39 104 -69 163
-88 177 -162 351 -221 523 -65 189 -95 253 -130 276 -34 22 -178 55 -500 115
-409 75 -636 120 -662 130 l-23 9 0 365 0 365 22 5 c13 2 174 30 358 60 381
64 688 120 742 135 83 24 120 78 183 270 48 145 112 301 209 508 42 90 83 188
91 220 l15 57 -34 70 c-39 82 -166 272 -439 662 -109 154 -197 285 -197 291 0
11 468 470 506 497 20 13 29 9 140 -67 66 -44 216 -149 334 -233 374 -264 492
-339 556 -351 39 -7 128 23 254 86 131 66 303 137 490 204 203 72 240 88 272
122 46 50 52 81 189 919 23 143 46 265 51 270 17 19 590 27 705 9z m-70 -2908
c252 -43 524 -210 702 -432 115 -143 209 -332 242 -489 26 -120 36 -365 20
-475 -45 -310 -241 -625 -505 -812 -88 -62 -234 -136 -346 -176 -128 -45 -212
-55 -416 -50 -209 6 -270 19 -443 97 -391 175 -660 513 -732 921 -19 105 -16
334 5 445 19 95 63 220 116 325 157 312 456 552 805 646 84 23 102 24 275 20
102 -3 227 -12 277 -20z m4577 -2817 c43 -46 56 -77 56 -125 l0 -34 -1955 0
-1955 0 0 23 c2 60 40 124 95 158 29 18 96 19 1876 19 l1847 0 36 -41z m-1272
-549 l1338 0 0 -1368 0 -1369 -1157 -6 c-636 -4 -1518 -7 -1960 -7 l-803 0 0
1373 c0 756 3 1377 8 1382 4 4 283 5 621 1 338 -3 1217 -6 1953 -6z"/>
<path d="M6951 2707 c-375 -370 -476 -467 -489 -467 -11 0 -80 54 -222 175
-120 103 -152 125 -181 125 -24 0 -56 -32 -183 -179 l-75 -88 257 -220 c141
-121 295 -250 341 -287 l83 -68 37 33 c20 19 255 252 523 519 l488 485 -132
132 c-73 73 -137 133 -142 133 -5 0 -143 -132 -305 -293z"/>
<path d="M6855 1635 c-214 -211 -393 -384 -397 -385 -4 0 -93 74 -198 165
-105 91 -195 165 -200 165 -17 0 -250 -270 -250 -290 0 -5 151 -138 336 -296
l336 -287 527 527 526 528 -135 129 c-74 71 -139 129 -145 129 -5 0 -185 -174
-400 -385z"/>
</g>
</svg>
