<?xml version="1.0" standalone="no"?>
<!DOCTYPE svg PUBLIC "-//W3C//DTD SVG 20010904//EN"
 "http://www.w3.org/TR/2001/REC-SVG-20010904/DTD/svg10.dtd">
<svg version="1.0" xmlns="http://www.w3.org/2000/svg"
 width="512.000000pt" height="512.000000pt" viewBox="0 0 512.000000 512.000000"
 preserveAspectRatio="xMidYMid meet">

<g transform="translate(0.000000,512.000000) scale(0.100000,-0.100000)"
fill="#000000" stroke="none">
<path d="M865 4865 l-25 -24 0 -525 0 -524 -177 -4 c-160 -3 -182 -5 -218 -25
-53 -28 -99 -78 -124 -133 -20 -44 -21 -60 -21 -1306 0 -1385 -3 -1309 60
-1386 17 -20 56 -49 88 -65 l57 -28 796 -3 796 -3 -52 -222 -52 -222 -167 -5
c-161 -5 -169 -6 -187 -29 -26 -32 -24 -77 6 -106 l24 -25 891 0 891 0 24 25
c33 32 33 78 0 110 -24 24 -28 25 -184 25 l-160 0 -10 52 c-26 129 -71 371
-71 384 0 11 126 14 783 16 l782 3 57 28 c33 16 70 45 88 67 64 81 61 0 58
1395 -3 1217 -4 1271 -22 1305 -26 49 -74 98 -121 123 -36 20 -58 22 -217 25
l-178 4 0 524 0 525 -25 24 -24 25 -1671 0 -1671 0 -24 -25z m3255 -1345 l0
-1210 -1560 0 -1560 0 0 1210 0 1210 1560 0 1560 0 0 -1210z m-3280 -604 c0
-688 1 -715 19 -737 l19 -24 1682 0 1682 0 19 24 c18 22 19 49 19 737 l0 714
150 0 c94 0 159 -4 175 -12 57 -26 55 16 55 -1033 l0 -965 -2100 0 -2100 0 0
968 c1 783 3 972 14 991 24 44 50 50 214 51 l152 0 0 -714z m3820 -1649 c0
-214 -3 -227 -66 -253 -49 -21 -4019 -21 -4068 0 -63 26 -66 39 -66 253 l0
193 2100 0 2100 0 0 -193z m-1775 -449 c3 -13 23 -113 44 -223 l38 -200 -400
-3 c-220 -1 -402 0 -405 2 -3 4 46 226 90 404 l10 42 309 0 309 0 5 -22z"/>
<path d="M2611 4443 c-29 -24 -235 -616 -226 -650 14 -57 80 -81 124 -45 28
23 235 616 226 649 -14 57 -80 81 -124 46z"/>
<path d="M2069 4400 c-8 -5 -71 -68 -139 -141 -107 -113 -124 -136 -124 -164
0 -28 18 -51 129 -169 70 -75 139 -139 152 -143 53 -13 111 43 98 94 -3 15
-47 68 -96 118 -49 50 -89 96 -89 101 0 5 36 45 81 89 117 116 129 146 80 196
-30 29 -63 36 -92 19z"/>
<path d="M2973 4398 c-12 -6 -27 -23 -34 -39 -17 -43 0 -73 96 -169 47 -47 85
-89 85 -94 0 -5 -40 -51 -89 -101 -49 -50 -93 -103 -96 -118 -13 -51 45 -107
98 -93 24 6 254 242 276 283 6 13 9 33 6 45 -3 13 -65 85 -138 161 -138 143
-150 151 -204 125z"/>
<path d="M1263 3530 c-47 -19 -57 -87 -18 -125 l24 -25 969 0 969 0 21 23 c32
34 30 89 -4 116 -27 21 -30 21 -983 20 -526 0 -966 -4 -978 -9z"/>
<path d="M1245 3115 c-16 -15 -25 -36 -25 -55 0 -19 9 -40 25 -55 l24 -25
1131 0 1131 0 24 25 c16 15 25 36 25 55 0 19 -9 40 -25 55 l-24 25 -1131 0
-1131 0 -24 -25z"/>
<path d="M1245 2715 c-16 -15 -25 -36 -25 -55 0 -19 9 -40 25 -55 l24 -25
1291 0 1291 0 24 25 c33 32 33 78 0 110 l-24 25 -1291 0 -1291 0 -24 -25z"/>
<path d="M3274 1287 c-20 -17 -27 -33 -27 -57 0 -24 7 -40 27 -57 23 -20 38
-23 106 -23 92 0 124 12 141 51 14 34 -2 84 -32 99 -10 6 -56 10 -103 10 -75
0 -88 -3 -112 -23z"/>
<path d="M3714 1287 c-20 -17 -27 -33 -27 -57 0 -24 7 -40 27 -57 23 -20 38
-23 106 -23 92 0 124 12 140 51 14 33 6 62 -23 89 -17 17 -35 20 -108 20 -78
0 -91 -3 -115 -23z"/>
<path d="M4149 1281 c-16 -16 -29 -39 -29 -51 0 -12 13 -35 29 -51 28 -28 34
-29 116 -29 82 0 88 1 116 29 31 32 35 50 17 84 -21 40 -40 46 -131 47 -85 0
-90 -1 -118 -29z"/>
</g>
</svg>
