<?xml version="1.0" standalone="no"?>
<!DOCTYPE svg PUBLIC "-//W3C//DTD SVG 20010904//EN"
 "http://www.w3.org/TR/2001/REC-SVG-20010904/DTD/svg10.dtd">
<svg version="1.0" xmlns="http://www.w3.org/2000/svg"
 width="512.000000pt" height="512.000000pt" viewBox="0 0 512.000000 512.000000"
 preserveAspectRatio="xMidYMid meet">

<g transform="translate(0.000000,512.000000) scale(0.100000,-0.100000)"
fill="#000000" stroke="none">
<path d="M1618 5104 c-48 -25 -53 -46 -58 -244 l-5 -185 -340 -5 c-297 -5
-346 -8 -390 -24 -166 -60 -291 -185 -351 -351 -16 -44 -19 -93 -24 -390 l-5
-340 -185 -5 c-205 -6 -226 -11 -250 -70 -10 -24 -10 -39 -1 -71 20 -67 39
-73 251 -79 l185 -5 0 -330 0 -330 -185 -5 c-209 -6 -229 -12 -250 -75 -9 -27
-9 -43 0 -70 21 -63 41 -69 250 -75 l185 -5 0 -330 0 -330 -185 -5 c-212 -6
-231 -12 -251 -79 -9 -32 -9 -47 1 -71 24 -59 45 -64 250 -70 l185 -5 5 -340
c5 -297 8 -346 24 -390 60 -166 185 -291 351 -351 44 -16 93 -19 390 -24 l340
-5 5 -185 c6 -205 11 -226 70 -250 24 -10 39 -10 71 -1 67 20 73 39 79 251 l5
185 330 0 330 0 5 -185 c6 -209 12 -229 75 -250 27 -9 43 -9 70 0 63 21 69 41
75 250 l5 185 330 0 330 0 5 -185 c6 -212 12 -231 79 -251 32 -9 47 -9 71 1
59 24 64 45 70 250 l5 185 340 5 c297 5 346 8 390 24 166 60 291 185 351 351
16 44 19 93 24 390 l5 340 185 5 c205 6 226 11 250 70 10 24 10 39 1 71 -20
67 -39 73 -251 79 l-185 5 0 330 0 330 185 5 c209 6 229 12 250 75 9 27 9 43
0 70 -21 63 -41 69 -250 75 l-185 5 0 330 0 330 185 5 c212 6 231 12 251 79 9
32 9 47 -1 71 -24 59 -45 64 -250 70 l-185 5 -5 340 c-5 297 -8 346 -24 390
-60 166 -185 291 -351 351 -44 16 -93 19 -390 24 l-340 5 -5 185 c-6 205 -11
226 -70 250 -24 10 -39 10 -71 1 -67 -20 -73 -39 -79 -251 l-5 -185 -330 0
-330 0 -5 185 c-6 209 -12 229 -75 250 -27 9 -43 9 -70 0 -63 -21 -69 -41 -75
-250 l-5 -185 -330 0 -330 0 -5 185 c-6 204 -10 223 -65 246 -43 17 -63 17
-97 -2z m2619 -676 c79 -29 162 -112 191 -191 l22 -58 0 -1619 0 -1619 -22
-58 c-29 -79 -112 -162 -191 -191 l-58 -22 -1619 0 -1619 0 -58 22 c-79 29
-162 112 -191 191 l-22 58 0 1619 0 1619 22 58 c28 77 112 162 188 191 l55 21
1622 0 1622 1 58 -22z"/>
<path d="M1389 4000 c-106 -18 -197 -91 -246 -195 l-28 -60 0 -1185 0 -1185
28 -60 c36 -78 95 -137 171 -172 l61 -28 1185 0 1185 0 61 28 c76 35 135 94
171 172 l28 60 0 1185 0 1185 -28 61 c-35 76 -94 135 -172 171 l-60 28 -1155
1 c-635 1 -1176 -2 -1201 -6z m2360 -251 l31 -31 0 -189 0 -189 -1220 0 -1220
0 0 189 0 189 31 31 31 31 1158 0 1158 0 31 -31z m31 -1488 l0 -859 -31 -31
-31 -31 -189 0 -189 0 0 280 c0 301 -4 331 -51 364 -21 14 -93 16 -729 16
-636 0 -708 -2 -729 -16 -47 -33 -51 -63 -51 -364 l0 -280 -189 0 -189 0 -31
31 -31 31 0 859 0 859 1220 0 1220 0 0 -859z m-660 -701 l0 -220 -560 0 -560
0 0 220 0 220 560 0 560 0 0 -220z"/>
</g>
</svg>
